<?xml version="1.0" standalone="no"?>
<!DOCTYPE svg PUBLIC "-//W3C//DTD SVG 20010904//EN"
 "http://www.w3.org/TR/2001/REC-SVG-20010904/DTD/svg10.dtd">
<svg version="1.0" xmlns="http://www.w3.org/2000/svg"
 width="700.000000pt" height="700.000000pt" viewBox="0 0 700.000000 700.000000"
 preserveAspectRatio="xMidYMid meet">
<metadata>
Created by potrace 1.14, written by Peter Selinger 2001-2017
</metadata>
<g transform="translate(0.000000,700.000000) scale(0.100000,-0.100000)"
fill="#000000" stroke="none">
<path d="M3285 6994 c-510 -41 -904 -146 -1330 -354 -600 -293 -1104 -754
-1450 -1325 -74 -122 -231 -433 -222 -441 3 -3 29 8 58 24 138 76 328 135 499
153 106 12 110 11 196 -16 57 -17 238 -103 504 -237 228 -116 417 -212 419
-214 2 -2 -8 -51 -24 -109 -23 -88 -31 -105 -44 -99 -76 30 -309 100 -406 120
-150 31 -422 44 -542 24 -101 -16 -217 -59 -287 -105 -86 -57 -196 -181 -245
-275 -73 -140 -128 -337 -102 -363 21 -21 346 -14 774 18 353 26 409 27 494
17 53 -7 115 -21 139 -31 58 -26 343 -312 456 -458 107 -139 183 -263 199
-326 33 -135 -52 -362 -217 -573 -266 -342 -731 -531 -1161 -473 -212 28 -475
125 -681 251 -37 22 -70 42 -74 45 -18 10 68 -192 146 -345 256 -499 630 -930
1094 -1261 332 -237 763 -435 1167 -535 297 -74 523 -100 855 -100 412 0 745
52 1115 176 1283 427 2205 1566 2360 2915 34 292 30 285 -219 -464 -126 -378
-230 -690 -232 -692 -2 -2 -86 19 -186 47 -101 28 -244 67 -319 88 l-136 37
-409 988 c-225 543 -412 984 -415 981 -4 -4 -165 -486 -359 -1072 -194 -586
-354 -1067 -356 -1069 -2 -2 -147 36 -322 85 l-318 88 -587 1429 c-324 786
-587 1431 -585 1432 3 3 518 -103 584 -119 19 -5 79 -148 414 -988 216 -541
397 -992 403 -1002 8 -16 84 201 364 1040 196 582 358 1062 362 1066 6 6 646
-114 655 -123 2 -2 184 -454 404 -1004 344 -859 402 -996 410 -975 5 14 150
446 323 961 l314 935 -30 75 c-16 41 -62 139 -102 219 -526 1060 -1543 1775
-2723 1915 -130 15 -521 27 -625 19z"/>
<path d="M3 3420 c4 -107 13 -253 22 -325 13 -117 48 -323 61 -367 9 -31 376
-162 554 -198 139 -28 241 -33 366 -21 421 42 713 270 805 629 10 41 19 92 19
113 0 63 16 63 -470 -6 -503 -72 -563 -78 -695 -72 -120 5 -184 20 -265 62
-18 9 -116 99 -218 199 l-185 181 6 -195z"/>
</g>
</svg>
